<svg width="170" height="125" viewBox="0 0 170 125" fill="none" xmlns="http://www.w3.org/2000/svg">
<path opacity="0.7" d="M168.874 50.7278C166.619 55.8948 161.356 56.1194 157.221 54.9962C157.409 56.3441 157.409 57.9166 157.409 59.0399C157.221 63.3083 154.966 66.678 152.522 69.3738C147.26 75.4394 138.989 77.9106 132.223 74.5408C132.411 78.3599 132.035 81.505 129.968 84.6501C127.336 88.2445 122.637 90.491 118.878 91.3896C114.931 92.5128 110.232 90.9403 106.661 88.6938C105.533 88.0198 104.594 87.1212 103.842 86.2226C102.902 90.7156 101.586 94.0854 97.8272 96.1073C93.5042 98.5784 88.2415 98.3538 83.7305 97.0059C76.0244 94.7594 69.4459 87.7952 67.9423 78.5845C67.0025 79.9324 65.8748 81.0557 64.935 81.9543C61.3638 85.998 56.289 86.8966 51.4022 87.3459C42.0044 88.0198 35.238 82.6282 30.7271 73.1929C27.1559 77.2366 21.1414 78.5845 16.4425 77.4613C15.3147 77.2366 14.375 76.7873 13.2472 76.5627C7.60855 72.9682 2.3458 68.9245 1.21807 60.6124C0.278288 52.7497 2.3458 45.7855 6.85673 40.6185C9.67606 38.1474 13.2472 37.2488 17.0063 37.4734C17.0063 36.5748 17.0063 35.6762 17.1943 34.553C18.1341 29.8353 22.2691 26.6902 25.6523 24.6683C32.6066 20.8493 44.4478 19.2767 50.4624 26.4655C50.4624 26.2409 50.4624 26.2409 50.6504 26.0163C51.5901 23.3204 53.2817 21.0739 55.3493 19.0521C59.1084 15.233 64.747 13.2112 69.6339 11.6386C78.4678 8.94279 89.5572 15.0084 92.3765 25.5669C93.1283 22.4218 95.5718 19.726 97.6393 18.3781C101.398 15.6823 105.533 15.0084 109.856 16.1316C115.119 17.4795 120.758 22.4218 122.073 28.7121C124.893 22.4218 133.351 22.8711 138.238 25.3423C141.057 26.9148 144.252 29.8353 145.756 33.6544C147.447 31.4079 151.77 30.5092 153.65 30.5092C158.349 30.2846 163.048 32.3065 166.431 36.3502C169.814 39.9446 171.13 46.0102 168.874 50.7278Z" fill="#EAF5FB"/>
<g clip-path="url(#clip0)" filter="url(#filter0_d)">
<path d="M87.2882 69.7943C103.226 69.7943 116.146 57.452 116.146 42.2269C116.146 27.0019 103.226 14.6595 87.2882 14.6595C71.3505 14.6595 58.4304 27.0019 58.4304 42.2269C58.4304 57.452 71.3505 69.7943 87.2882 69.7943Z" fill="#FDF0DA"/>
<path d="M111.183 30.2411C111.183 30.2411 116.789 45.6383 108.702 57.2553C101.258 67.7659 84.4392 70.6241 73.7783 66.5673C73.7783 66.5673 102.085 77.9078 112.194 58.5461C120.649 42.4113 111.183 30.2411 111.183 30.2411Z" fill="#E2D2BE"/>
<path d="M71.7565 90.0781C71.7565 90.0781 72.9512 99.1135 79.1088 103.723C85.2663 108.333 90.0453 109.993 90.0453 109.993L94.6405 101.603L101.533 102.248L107.967 87.8653C107.967 87.8653 100.155 88.2341 96.4786 86.1135C96.4786 86.2057 94.3648 89.6171 71.7565 90.0781Z" fill="#FDB842"/>
<path d="M76.5354 68.1348C76.5354 68.1348 73.8702 69.1489 72.6755 72.4681C71.4807 75.695 70.9293 86.1135 70.9293 86.1135L71.6646 90.2624C71.6646 90.2624 78.7411 90.7234 78.833 90.6312C79.0168 90.4468 91.7915 88.3263 91.7915 88.3263L99.4195 84.5461L96.3866 79.9362L92.9862 75.8794L90.5048 70.7163C90.5048 70.7163 84.623 71.0851 82.4173 70.1631C80.2116 69.2411 76.5354 68.1348 76.5354 68.1348Z" fill="#86CECA"/>
<path d="M76.1678 68.688C76.1678 68.688 73.135 81.4114 80.3034 85.4681C87.38 89.5249 97.7651 81.8724 97.7651 81.8724L99.5113 84.4539C99.5113 84.4539 92.7104 89.3405 81.3144 90.2625C74.973 90.8156 71.7564 90.1703 71.7564 90.1703C71.7564 90.1703 67.8964 73.6667 76.1678 68.688Z" fill="#659B98"/>
<path d="M72.3079 91.2766C72.3079 91.2766 77.2707 101.787 85.9096 102.894C91.1481 103.539 94.7324 101.603 94.7324 101.603L90.1372 109.993C90.1372 109.993 84.623 108.794 79.2006 103.723C73.6864 98.7447 72.3079 91.2766 72.3079 91.2766Z" fill="#BE8A32"/>
<path d="M105.761 105.66C105.761 105.66 103.923 116.816 109.805 116.17C115.686 115.525 108.61 105.199 108.61 105.199L105.761 105.66Z" fill="#86CECA"/>
<path d="M117.984 85.4681C117.984 85.4681 116.973 91.7376 117.249 94.4114C117.525 96.993 119.455 98.8369 121.66 98.4681C123.774 98.0993 125.336 92.5674 122.671 89.8937C120.098 87.2199 117.984 85.4681 117.984 85.4681Z" fill="#86CECA"/>
<path d="M79.1088 68.8723C79.1088 68.8723 79.0168 73.4822 84.1635 74.0354C89.2182 74.5886 90.0453 70.4397 90.0453 70.4397C90.0453 70.4397 83.8877 71.2695 79.1088 68.8723Z" fill="#FDF0DA"/>
<path d="M82.1415 0.368774C82.1415 0.368774 74.5135 3.04253 77.3626 10.3262C77.3626 10.3262 70.3779 13.5532 64.3122 8.29785C64.3122 8.29785 62.4742 10.7872 63.1175 12.078C63.1175 12.078 59.717 12.078 59.3494 10.3262C59.3494 10.3262 58.2466 14.0142 59.3494 16.0425C59.3494 16.0425 58.2466 18.2553 56.0409 16.9645C56.0409 16.9645 58.4304 23.3262 68.356 22.5886C78.2816 21.851 80.8549 18.4397 80.8549 18.4397C80.8549 18.4397 83.0606 29.5035 99.2356 31.4397C99.2356 31.4397 98.7761 29.5957 98.7761 28.2127C98.7761 28.2127 109.621 34.7588 117.8 30.7943C117.8 30.7943 113.481 29.4113 112.01 28.0284C112.01 28.0284 117.8 26.6454 119.546 22.2198C119.546 22.2198 112.837 19.7305 110.632 16.2269C110.632 16.2269 95.0081 17.7021 87.8396 9.77303C87.8396 9.77303 87.0124 5.1631 89.8615 3.31913C89.8615 3.31913 84.1634 2.76594 82.2335 5.1631C82.2335 5.1631 80.6711 3.31913 82.1415 0.368774Z" fill="#FDB842"/>
<path d="M59.9008 31.5319C59.9008 33.4681 58.1546 35.1276 56.0409 35.1276C53.9271 35.1276 52.1809 33.5603 52.1809 31.5319C52.1809 29.5035 53.9271 27.9362 56.0409 27.9362C58.1546 27.9362 59.9008 29.5957 59.9008 31.5319Z" fill="#FDF0DA"/>
<path d="M122.855 43.9787C122.855 45.8226 121.384 47.2978 119.546 47.2978C117.708 47.2978 116.238 45.8226 116.238 43.9787C116.238 42.1347 117.708 40.6595 119.546 40.6595C121.384 40.5673 122.855 42.1347 122.855 43.9787Z" fill="#FDF0DA"/>
<path d="M59.7171 12.4469C59.5333 12.5391 59.4414 12.7235 59.3495 12.9079C59.2576 13.0923 59.3495 13.3688 59.4414 13.461C59.809 14.0142 60.2685 14.5674 60.728 15.0284C60.9118 15.2128 61.1875 15.3972 61.3714 15.5816C61.5552 15.6738 61.6471 15.766 61.8309 15.8582C62.0147 15.9504 62.1985 16.0426 62.3823 16.1348C63.1175 16.5036 63.7608 16.7802 64.4961 17.0568C65.9665 17.5178 67.437 17.8866 68.9075 18.071C69.5508 18.1632 70.1941 18.2554 70.8374 18.2554C71.1131 18.2554 71.4808 18.2554 71.7565 18.2554C72.216 18.2554 72.5836 18.1632 73.0431 18.071C73.2269 18.071 73.4107 17.9788 73.5945 17.8866C73.8703 17.7944 74.146 17.7022 74.3298 17.61C74.6974 17.5178 74.9731 17.3334 75.3407 17.2412C75.984 16.9646 76.5355 16.688 77.0869 16.3192C77.2707 16.227 77.3626 16.1348 77.3626 15.9504C77.3626 15.766 77.3626 15.5816 77.2707 15.4894C77.0869 15.2128 76.7193 15.1206 76.4436 15.305C75.984 15.5816 75.5245 15.766 75.065 15.9504C74.146 16.3192 73.135 16.688 72.1241 16.8724C71.205 16.9646 70.286 16.8724 69.4589 16.7802C68.9994 16.688 68.6317 16.688 68.1722 16.5958C67.6208 16.5036 67.0694 16.3192 66.6099 16.227C65.6908 15.9504 64.8637 15.6738 64.0366 15.3972C63.3932 15.1206 62.8418 14.844 62.2904 14.383C61.9228 14.1064 61.6471 13.8298 61.3714 13.461C61.1875 13.2766 61.0956 13.0923 60.9118 12.8157C60.8199 12.6313 60.6361 12.5391 60.4523 12.4469C60.3604 12.4469 60.3604 12.4469 60.2685 12.4469C59.9928 12.3547 59.809 12.4469 59.7171 12.4469Z" fill="#1C1C1C"/>
<path d="M87.5639 14.2907C87.3801 14.2907 87.2882 14.4751 87.1963 14.5673C87.1044 14.7517 87.1044 14.8439 87.1044 15.0283C87.1963 15.4893 87.2882 15.8581 87.3801 16.3191C87.5639 17.1489 87.9315 17.8865 88.391 18.6241C88.8505 19.3616 89.4939 20.007 90.1372 20.6524C90.4129 20.929 90.7805 21.2056 91.0562 21.39C91.3319 21.5744 91.5157 21.7588 91.7915 21.9432C91.9753 22.1276 92.251 22.312 92.4348 22.4042C92.7105 22.5886 93.0781 22.8652 93.3538 23.0496C93.6295 23.234 93.9052 23.4184 94.181 23.6028C96.2947 24.9858 98.5004 26.1843 100.706 27.2907C101.258 27.5673 101.901 27.9361 102.452 28.2127C102.912 28.4893 103.371 28.6737 103.923 28.9503C104.29 29.1347 104.658 29.3191 104.934 29.4113C105.209 29.5035 105.393 29.5957 105.669 29.7801C105.945 29.8723 106.22 30.0567 106.588 30.1489C106.772 30.2411 106.956 30.3333 107.139 30.3333C107.231 30.4255 107.415 30.4255 107.507 30.5177C107.875 30.6099 108.242 30.7943 108.518 30.7943C108.794 30.8865 108.977 30.8865 109.253 30.9787C109.437 30.9787 109.621 31.0709 109.805 31.0709C109.988 31.0709 110.172 31.1631 110.356 31.1631C110.54 31.1631 110.724 31.2553 110.907 31.2553C111.183 31.2553 111.459 31.2553 111.643 31.2553C111.918 31.2553 112.286 31.2553 112.562 31.1631C112.837 31.1631 113.021 31.0709 113.297 30.9787C113.573 30.8865 113.756 30.6099 113.665 30.3333C113.573 30.0567 113.297 29.9645 113.021 29.9645C112.929 29.9645 112.837 29.9645 112.746 30.0567C112.194 30.1489 111.551 30.0567 110.999 29.9645C110.632 29.8723 110.356 29.8723 109.988 29.7801C109.621 29.6879 109.161 29.5957 108.794 29.5035C108.426 29.4113 108.15 29.3191 107.783 29.1347C107.599 29.0425 107.415 29.0425 107.231 28.9503C107.047 28.8581 106.864 28.8581 106.68 28.7659C106.128 28.4893 105.669 28.3049 105.118 28.0283C104.474 27.7517 103.923 27.3829 103.279 27.1063C102.268 26.5531 101.258 25.9999 100.247 25.4467C98.0409 24.2482 95.8352 23.0496 93.7214 21.6666C93.4457 21.4822 93.0781 21.2056 92.8024 21.0212C92.5267 20.8368 92.251 20.5602 91.8834 20.3758C91.6077 20.1914 91.3319 19.9148 91.0562 19.7304C90.5048 19.2694 89.9534 18.7163 89.4939 18.1631C89.1263 17.7021 88.8505 17.1489 88.5748 16.6879C88.391 16.3191 88.2991 15.8581 88.2072 15.3971C88.1153 15.1205 88.1153 14.8439 88.0234 14.5673C88.0234 14.3829 87.8396 14.2907 87.7477 14.1985C87.6558 14.1063 87.5639 14.1063 87.472 14.1063C87.7477 14.1985 87.6558 14.1985 87.5639 14.2907ZM88.9424 16.8723C88.9424 16.8723 88.9424 16.9645 88.9424 16.8723C88.9424 16.9645 88.9424 16.8723 88.9424 16.8723Z" fill="#1C1C1C"/>
<path d="M81.2225 0.0921986C80.8549 0.276596 80.5792 0.553191 80.2115 0.829787C79.6601 1.19858 79.2925 1.84397 79.0168 2.39716C78.833 2.76596 78.6492 3.22695 78.5573 3.59574C78.4654 3.78014 78.4654 4.05674 78.3735 4.33333C78.2816 4.60993 78.2816 4.88652 78.1897 5.16312C78.0978 5.80851 78.0978 6.4539 78.1897 7.09929C78.2816 7.74468 78.6492 8.39007 79.0168 8.94326C79.2925 9.31206 79.5682 9.68085 79.8439 10.0496C80.0277 10.234 80.3953 10.3262 80.5792 10.1418C80.763 10.0496 80.8549 9.95745 80.8549 9.77305C80.8549 9.58865 80.8549 9.40426 80.763 9.31206C80.3953 8.85106 80.0277 8.29787 79.752 7.74468C79.752 7.37589 79.6601 7.00709 79.6601 6.6383C79.6601 6.2695 79.6601 5.80851 79.6601 5.43972C79.6601 5.34752 79.6601 5.16312 79.752 5.07092C79.752 5.07092 79.752 5.07092 79.752 5.16312C79.8439 4.88652 79.8439 4.51773 79.9358 4.24113C80.0277 3.87234 80.1196 3.59574 80.3034 3.22695C80.4872 2.85816 80.5792 2.58156 80.8549 2.30496C81.0387 2.12057 81.1306 2.02837 81.3144 1.84397C81.5901 1.65957 81.7739 1.47518 82.0496 1.38298C82.2334 1.29078 82.3253 1.19858 82.3253 1.01418C82.3253 0.829787 82.3253 0.64539 82.2334 0.553191C82.0496 0.0921986 81.7739 0 81.5901 0C81.4982 0 81.3144 0 81.2225 0.0921986Z" fill="#1C1C1C"/>
<path d="M86.7368 4.05676C86.461 4.14896 86.0934 4.14896 85.8177 4.33336C85.4501 4.42556 85.1744 4.60995 84.8987 4.79435C84.3473 5.16315 83.9796 5.71634 83.5201 6.17733C83.4282 6.45393 83.2444 6.73052 83.1525 7.00712C82.9687 7.28371 82.8768 7.65251 82.7849 7.9291C82.693 8.2979 82.693 8.57449 82.693 8.94329C82.693 9.31208 82.7849 9.58868 82.9687 9.95747C83.0606 10.2341 83.3363 10.4185 83.612 10.3263C83.8877 10.2341 83.9796 9.95747 83.9796 9.68088C83.8877 9.49648 83.8877 9.21988 83.7958 9.03549C83.7958 8.85109 83.7958 8.75889 83.7958 8.57449C83.8877 8.2979 83.8877 8.1135 83.9796 7.83691C84.1635 7.37591 84.4392 6.91492 84.7149 6.54612C84.9906 6.26953 85.2663 5.90073 85.542 5.71634C85.7258 5.62414 85.9096 5.43974 86.0934 5.34754C86.3691 5.25534 86.6449 5.16315 87.0125 5.07095C87.2882 4.97875 87.472 4.70215 87.3801 4.42556C87.2882 4.14896 87.1044 4.05676 86.9206 4.05676C86.7368 4.05676 86.7368 4.05676 86.7368 4.05676Z" fill="#1C1C1C"/>
<path d="M84.3472 36.4184C83.7958 36.6028 83.3363 36.8794 82.8767 37.3404C82.5091 37.7092 82.1415 38.078 81.7739 38.539C81.682 38.7234 81.5901 38.8156 81.5901 39C81.5901 39.1844 81.682 39.3688 81.7739 39.5532C81.8658 39.6454 82.0496 39.7376 82.2334 39.7376C82.4172 39.7376 82.601 39.6454 82.7848 39.5532C83.2444 39.0922 83.612 38.539 84.1634 38.1702C84.3472 38.078 84.531 37.9858 84.7148 37.8936C84.9905 37.8014 85.2662 37.7092 85.5419 37.7092C86.0015 37.7092 86.3691 37.7092 86.8286 37.8014C87.1962 37.8936 87.4719 37.9858 87.8395 38.078C88.0233 38.1702 88.2991 38.3546 88.4829 38.4468C88.6667 38.6312 88.9424 38.8156 89.1262 39.0922C89.2181 39.1844 89.31 39.2766 89.4938 39.461C89.5857 39.5532 89.6776 39.6454 89.7695 39.6454C89.8614 39.7376 89.9533 39.8298 90.1371 39.922C90.3209 40.0142 90.5048 40.0142 90.6886 40.0142C90.9643 40.0142 91.24 39.8298 91.3319 39.5532C91.4238 39.1844 91.24 38.8156 90.8724 38.7234C90.6886 38.539 90.5047 38.3546 90.3209 38.1702C90.1371 37.9858 89.9533 37.8014 89.7695 37.7092C89.4019 37.4326 89.1262 37.156 88.6667 36.9716C88.0233 36.6028 87.2881 36.5106 86.5529 36.4184C86.3691 36.4184 86.1853 36.4184 86.0934 36.4184C85.3581 36.2341 84.8067 36.2341 84.3472 36.4184Z" fill="#1C1C1C"/>
<path d="M110.172 66.1064C109.345 66.1986 108.61 66.2908 107.783 66.383C107.047 66.4752 106.404 66.6596 105.669 66.7518C104.934 66.9362 104.198 67.1206 103.463 67.305C102.728 67.4894 102.085 67.5816 101.349 67.766C99.879 68.1348 98.5004 68.5036 97.03 68.9646C96.1109 69.2412 95.2838 69.5178 94.3648 69.7944C93.9972 69.8866 93.8134 70.2554 93.9053 70.532C93.9972 70.9007 94.3648 71.0851 94.6405 70.9929C96.019 70.532 97.4895 70.071 98.8681 69.7022C100.339 69.3334 101.717 68.9646 103.188 68.5958C104.29 68.3192 105.301 68.0426 106.404 67.8582C107.415 67.5816 108.518 67.4894 109.529 67.3972C110.907 67.305 112.378 67.2128 113.756 67.2128C115.227 67.2128 116.789 67.305 118.26 67.305C118.995 67.305 119.822 67.3972 120.557 67.4894C120.925 67.5816 121.293 67.6738 121.568 67.766C121.936 67.8582 122.304 68.0426 122.671 68.1348C122.947 68.227 123.314 68.1348 123.498 67.8582C123.682 67.5816 123.59 67.0284 123.314 66.844C122.947 66.6596 122.579 66.4752 122.12 66.2908C121.752 66.1986 121.384 66.1064 120.925 66.0142C120.19 65.922 119.546 65.8298 118.811 65.8298C117.341 65.8298 115.778 65.8298 114.308 65.8298C114.216 65.8298 114.216 65.8298 114.124 65.8298C112.929 65.922 111.551 66.0142 110.172 66.1064Z" fill="#1C1C1C"/>
<path d="M126.255 63.7093C125.888 63.7093 125.428 63.7093 125.061 63.8015C124.325 63.8937 123.59 64.0781 122.855 64.2625C122.395 64.3547 122.12 64.8156 122.303 65.1844C122.395 65.6454 122.855 65.8298 123.222 65.7376C124.05 65.5532 124.785 65.3688 125.612 65.2766C125.888 65.2766 126.071 65.2766 126.347 65.1844C126.715 65.1844 126.991 65.0922 127.358 65.0922C127.45 65.0922 127.542 65 127.634 64.9078C127.726 64.8157 127.818 64.6313 127.818 64.4469C127.818 64.1703 127.634 63.8937 127.358 63.8015C126.991 63.7093 126.623 63.6171 126.255 63.6171C126.347 63.7093 126.347 63.7093 126.255 63.7093Z" fill="#1C1C1C"/>
<path d="M124.693 66.383C124.509 66.4752 124.325 66.5674 124.233 66.7518C124.142 66.9362 124.05 67.1206 124.142 67.3972C124.233 67.5816 124.325 67.766 124.509 67.8582C124.693 67.9504 124.969 68.0426 125.153 67.9504C125.52 67.8582 125.796 67.766 126.163 67.6738C126.439 67.5816 126.715 67.5816 126.991 67.4894C127.358 67.4894 127.726 67.4894 128.002 67.4894C128.277 67.5816 128.645 67.6738 128.921 67.766C129.104 67.8582 129.288 67.8582 129.472 67.766C129.656 67.6738 129.84 67.4894 129.84 67.2128C129.84 66.5674 129.196 66.1986 128.645 66.0142C128.277 65.8298 127.818 65.8298 127.358 65.8298H127.266C126.347 65.922 125.52 66.1064 124.693 66.383Z" fill="#1C1C1C"/>
<path d="M125.061 68.1348C124.877 68.1348 124.693 68.1348 124.509 68.227C124.417 68.227 124.325 68.227 124.325 68.227C124.142 68.227 124.05 68.3192 123.958 68.4114C123.774 68.5958 123.682 68.7802 123.682 68.9646C123.682 69.149 123.774 69.4255 123.866 69.5177C123.958 69.7021 124.233 69.7943 124.417 69.7943C124.877 69.7943 125.336 69.7021 125.796 69.7943C126.071 69.8865 126.255 69.8865 126.531 70.0709C127.082 70.3475 127.634 70.7163 128.093 71.0851C128.369 71.2695 128.737 71.1773 129.012 70.9929C129.288 70.7163 129.288 70.2553 129.012 69.9787C128.737 69.7021 128.461 69.4255 128.185 69.2411C127.91 69.0567 127.726 68.8724 127.45 68.7802C127.082 68.5958 126.715 68.4114 126.255 68.3192C125.98 68.227 125.704 68.227 125.336 68.227C125.244 68.1348 125.152 68.1348 125.061 68.1348Z" fill="#1C1C1C"/>
<path d="M53.4676 60.6667C53.3757 60.8511 53.3757 60.9433 53.3757 61.1277C53.3757 61.3121 53.4676 61.4043 53.6514 61.4965C53.7433 61.4965 53.8353 61.5887 53.9272 61.5887C54.0191 61.5887 54.111 61.5887 54.2029 61.5887C54.2948 61.5887 54.3867 61.5887 54.4786 61.5887C54.5705 61.5887 54.7543 61.5887 54.8462 61.5887C55.03 61.5887 55.2138 61.5887 55.4895 61.5887C55.949 61.5887 56.3167 61.6809 56.6843 61.7731C56.5924 61.7731 56.5924 61.7731 56.5005 61.7731C56.5924 61.7731 56.5924 61.7731 56.6843 61.7731H56.7762C56.8681 61.7731 56.8681 61.7731 56.96 61.7731C57.1438 61.7731 57.2357 61.8653 57.4195 61.8653C58.0628 61.9575 58.6142 62.1419 59.1657 62.3263C59.809 62.5106 60.3604 62.6951 61.0037 62.9716C61.5552 63.156 62.1985 63.4326 62.7499 63.7092C63.3932 63.9858 64.0366 64.3546 64.588 64.7234C65.2313 65.0922 65.8746 65.5532 66.4261 66.0142C66.7937 66.2908 67.1613 66.6596 67.437 66.9362C67.8046 67.305 68.0803 67.5816 68.356 67.9504C68.6318 68.4114 68.9075 68.7802 69.1832 69.2411C69.367 69.5177 69.7346 69.7021 70.1022 69.5177C70.3779 69.3333 70.5617 68.9646 70.3779 68.5958C70.0103 67.9504 69.6427 67.305 69.0913 66.6596C68.6318 66.1064 68.1722 65.6454 67.7127 65.1844C67.437 64.9078 67.0694 64.6312 66.7937 64.4468C66.518 64.2624 66.2423 64.078 65.9665 63.8936C65.6908 63.7092 65.4151 63.5248 65.1394 63.3404C64.8637 63.156 64.588 62.9716 64.3123 62.8794C63.9447 62.695 63.577 62.5106 63.2094 62.4184C62.9337 62.2341 62.5661 62.1419 62.2904 62.0497C61.6471 61.7731 61.0037 61.5887 60.3604 61.4043C59.7171 61.2199 59.0738 61.0355 58.4304 60.8511C57.9709 60.7589 57.5114 60.6667 57.0519 60.5745C57.0519 60.5745 57.0519 60.5745 56.96 60.5745C56.7762 60.5745 56.5924 60.4823 56.4086 60.4823C56.0409 60.3901 55.7652 60.3901 55.3976 60.2979C55.2138 60.2979 55.03 60.2979 54.9381 60.2057C54.8462 60.2057 54.7543 60.2057 54.6624 60.2057C54.5705 60.2057 54.5705 60.2057 54.4786 60.2057C54.3867 60.2057 54.3867 60.2057 54.2948 60.2057C54.2029 60.2057 54.2029 60.2057 54.111 60.2057C53.8353 60.2979 53.6514 60.4823 53.4676 60.6667Z" fill="#1C1C1C"/>
<path d="M50.1591 61.312C49.8834 61.312 49.6076 61.4042 49.3319 61.4042C49.0562 61.4964 48.8724 61.4964 48.6886 61.5886C48.5967 61.6808 48.4129 61.773 48.2291 61.773C48.1372 61.8652 47.9534 61.9574 47.8615 61.9574C47.7696 62.0496 47.5858 62.1418 47.5858 62.3262C47.4939 62.5106 47.5858 62.6028 47.5858 62.7872C47.7696 63.0638 48.1372 63.156 48.4129 63.0638C48.7805 62.8794 49.1481 62.695 49.4238 62.5106C49.6996 62.4184 49.8834 62.3262 50.1591 62.3262C50.4348 62.234 50.6186 62.234 50.8943 62.234C51.0781 62.234 51.17 62.234 51.3538 62.234C51.5376 62.234 51.7214 62.234 51.9052 62.234C52.181 62.234 52.3648 62.3262 52.6405 62.4184C53.0081 62.5106 53.2838 62.6028 53.6514 62.695C53.7433 62.695 54.019 62.6028 54.1109 62.3262C54.1109 62.1418 54.019 61.8652 53.8352 61.773C53.3757 61.6808 52.9162 61.4964 52.3648 61.4042C52.089 61.312 51.8133 61.312 51.5376 61.2198C51.2619 61.2198 51.0781 61.2198 50.8024 61.2198C50.8024 61.2198 50.8024 61.2198 50.7105 61.2198C50.6186 61.2198 50.3429 61.312 50.1591 61.312Z" fill="#1C1C1C"/>
<path d="M75.1568 68.3191C74.8811 68.5035 74.6973 68.5957 74.4216 68.7801C74.1459 68.9645 73.9621 69.1489 73.7783 69.3333C73.5026 69.5177 73.3188 69.7943 73.135 70.0709C72.9512 70.3475 72.8593 70.6241 72.6754 70.9007C72.5835 71.0851 72.4916 71.3617 72.3078 71.6383C71.9402 72.4681 71.5726 73.2979 71.2969 74.1276C70.7455 75.8794 70.4698 77.7234 70.286 79.5674C70.1021 81.3191 70.0102 83.0709 69.9183 84.7305C69.9183 85.6525 69.9183 86.5744 70.0102 87.4964C70.1021 87.9574 70.1021 88.3262 70.194 88.7872C70.286 89.3404 70.3779 89.9858 70.6536 90.4468C70.9293 91 71.5726 91.2766 72.2159 91.2766C72.3997 91.2766 72.5835 91.2766 72.8593 91.2766C73.3188 91.2766 73.6864 91.2766 74.1459 91.2766C74.973 91.2766 75.8921 91.3688 76.7192 91.3688C77.6382 91.3688 78.5573 91.2766 79.4763 91.0922C80.3035 90.9078 81.2225 90.7234 82.0496 90.6312C82.9687 90.4468 83.7958 90.2624 84.7148 90.078C85.6339 89.8936 86.461 89.8014 87.2881 89.5248C88.1153 89.3404 88.9424 89.156 89.7695 88.9716C90.6886 88.7872 91.6076 88.695 92.5267 88.5106C93.4457 88.3262 94.2728 88.0496 95.1919 87.773C95.6514 87.5886 96.019 87.4042 96.4785 87.2198C96.8461 87.0354 97.2137 86.851 97.5814 86.5744C97.949 86.2979 98.3166 86.1135 98.6842 85.8369C99.0518 85.6525 99.4194 85.3759 99.787 85.0993C100.063 84.8227 100.247 84.5461 100.247 84.1773C100.247 83.8085 100.063 83.5319 99.879 83.2553C99.6032 82.8865 99.4194 82.4255 99.1437 82.0567C98.7761 81.5957 98.4085 81.0425 98.0409 80.5815C97.5814 80.1205 97.2137 79.5674 96.7542 79.1064C96.3866 78.6454 95.9271 78.2766 95.5595 77.8156C95.1919 77.3546 94.7323 76.8936 94.3647 76.3404C94.1809 76.0638 93.9052 75.695 93.7214 75.4184C93.5376 75.0496 93.3538 74.5886 93.17 74.2198C93.0781 73.851 92.8943 73.5744 92.8024 73.2057C92.7105 73.0213 92.7105 72.9291 92.6186 72.7447C92.5267 72.6525 92.5267 72.5603 92.4347 72.4681C92.2509 72.2837 92.159 72.0993 91.8833 71.9149C91.6995 71.8227 91.6076 71.7305 91.3319 71.6383C91.1481 71.6383 90.9643 71.7305 90.7805 71.8227C90.5048 72.0993 90.5048 72.5603 90.7805 72.8369C90.8724 72.9291 90.9643 73.0213 90.9643 73.0213C91.24 73.39 91.3319 73.7588 91.5157 74.2198C91.6995 74.5886 91.8833 75.0496 92.0671 75.4184C92.4347 76.2482 92.9862 76.9858 93.5376 77.6312C94.089 78.2766 94.6404 79.0142 95.2838 79.6596C95.8352 80.3049 96.4785 81.0425 97.0299 81.6879C97.3975 82.1489 97.7652 82.6099 98.1328 83.0709C98.2247 83.2553 98.4085 83.4397 98.5004 83.6241C98.5923 83.8085 98.7761 83.9929 98.868 84.0851C98.6842 84.1773 98.5004 84.2695 98.3166 84.3617C97.949 84.5461 97.6733 84.7305 97.3056 84.9149C96.5704 85.2837 95.9271 85.6525 95.1919 85.9291C94.4566 86.2057 93.6295 86.4823 92.8024 86.6666C91.9752 86.851 91.0562 86.9432 90.2291 87.0354C89.4019 87.1276 88.4829 87.312 87.6558 87.4964C86.7367 87.6808 85.8177 87.8652 84.8986 87.9574C84.3472 88.0496 83.7958 88.1418 83.2444 88.234C82.601 88.3262 82.0496 88.4184 81.4063 88.6028C80.3035 88.7872 79.2006 89.0638 78.0059 89.156C77.5463 89.156 77.0868 89.2482 76.6273 89.156C76.1678 89.156 75.6164 89.156 75.1568 89.0638C74.6973 89.0638 74.1459 89.0638 73.6864 89.0638C73.4107 89.0638 73.2269 89.0638 72.9512 89.0638C72.7674 89.0638 72.5835 89.0638 72.3078 89.0638C72.2159 88.695 72.124 88.234 72.0321 87.8652C71.9402 87.4042 71.8483 87.0354 71.8483 86.5744C71.8483 86.2057 71.7564 85.8369 71.7564 85.5603C71.7564 85.0993 71.7564 84.7305 71.7564 84.2695C71.7564 83.4397 71.8483 82.6099 71.8483 81.7801C71.8483 80.9503 71.9402 80.0283 72.0321 79.1986C72.124 78.3688 72.2159 77.539 72.3078 76.7092C72.4916 75.7872 72.6754 74.8652 72.9512 74.0354C73.2269 73.1135 73.5945 72.2837 73.9621 71.4539C74.1459 71.0851 74.3297 70.7163 74.6054 70.4397C74.7892 70.2553 74.973 70.0709 75.1568 69.9787C75.4326 69.7943 75.6164 69.7021 75.8921 69.5177C76.2597 69.3333 76.4435 68.8723 76.1678 68.4113C76.0759 68.4113 75.8002 68.2269 75.5245 68.2269C75.4326 68.2269 75.2488 68.3191 75.1568 68.3191Z" fill="#1C1C1C"/>
<path d="M78.7411 69.4255C78.3735 69.5177 78.0978 69.8865 78.1897 70.2553C78.2816 70.7163 78.4654 71.1773 78.6492 71.6383C78.9249 72.1915 79.2925 72.6525 79.7521 73.1135C80.3954 73.6667 81.1306 73.9433 81.8658 74.2199C82.6011 74.4965 83.3363 74.6809 84.0715 74.7731C84.4391 74.8652 84.8068 74.8653 85.1744 74.9575C85.7258 75.0497 86.2772 74.9574 86.8286 74.7731C87.5639 74.5887 88.2072 74.1277 88.7586 73.5745C89.0343 73.2979 89.2181 73.0213 89.4938 72.7447C89.5857 72.6525 89.6777 72.4681 89.7696 72.3759C89.8615 72.1915 89.9534 72.0071 90.0453 71.8227C90.1372 71.5461 90.0453 71.1773 89.7696 70.9929C89.4019 70.8085 89.0343 70.9007 88.8505 71.1773C88.7586 71.2695 88.6667 71.4539 88.5748 71.5461C88.2072 72.0071 87.7477 72.4681 87.1962 72.9291C87.0124 73.0213 86.8286 73.2057 86.5529 73.2979C86.3691 73.3901 86.0934 73.3901 85.9096 73.4823C85.542 73.4823 85.1744 73.4823 84.8068 73.3901C84.531 73.3901 84.1634 73.2979 83.8877 73.2979C83.0606 73.1135 82.3254 72.9291 81.4982 72.5603C81.3144 72.4681 81.1306 72.3759 81.0387 72.2837C80.8549 72.1915 80.763 72.0993 80.6711 72.0071C80.4873 71.8227 80.3035 71.7305 80.2116 71.5461C80.1197 71.3617 80.0278 71.2695 79.9359 71.0851C79.844 70.7163 79.7521 70.3475 79.6601 70.0709C79.5682 69.7943 79.2925 69.5177 79.0168 69.5177C78.833 69.4255 78.833 69.4255 78.7411 69.4255Z" fill="#1C1C1C"/>
<path d="M70.9293 89.6171C70.9293 90.1702 71.0212 90.7234 71.1131 91.2766C71.205 91.8298 71.2969 92.2908 71.3888 92.844C71.4807 93.305 71.5726 93.766 71.7565 94.3192C71.9403 94.8724 72.1241 95.4256 72.3079 95.9788C72.6755 96.9007 73.135 97.8227 73.6864 98.6525C74.2379 99.5745 74.8812 100.404 75.6164 101.234C76.2597 102.064 76.9031 102.894 77.6383 103.631C78.3735 104.369 79.2007 105.199 80.0278 105.844C80.8549 106.489 81.5902 107.043 82.5092 107.596C83.3363 108.149 84.2554 108.702 85.1744 109.163C86.1853 109.624 87.1044 110.085 88.1153 110.454C88.5748 110.638 89.0344 110.731 89.4939 110.823C90.0453 110.915 90.5967 111.007 91.0562 110.731C91.4238 110.454 91.6996 110.085 91.8834 109.624C92.3429 108.702 92.8024 107.78 93.2619 106.858C93.7214 105.936 94.2729 104.922 94.7324 103.908C94.9162 103.447 95.1 102.986 95.2838 102.525C95.4676 102.064 95.1919 101.603 94.7324 101.511C94.5486 101.418 94.2729 101.511 94.0891 101.603C93.9052 101.695 93.8133 101.879 93.7214 102.064C93.6295 102.34 93.5376 102.525 93.4457 102.801C92.9862 103.908 92.3429 104.922 91.7915 105.936C91.5158 106.489 91.24 106.95 90.9643 107.504C90.6886 107.965 90.5048 108.426 90.2291 108.794C90.0453 108.794 89.8615 108.702 89.7696 108.61C89.4939 108.518 89.2182 108.426 88.9424 108.333C88.4829 108.149 88.0234 107.965 87.472 107.78C86.9206 107.504 86.3691 107.227 85.8177 106.95C85.1744 106.582 84.623 106.213 84.0716 105.844C83.5201 105.475 82.9687 105.199 82.5092 104.83C81.9578 104.461 81.4982 104.092 80.9468 103.631C79.9359 102.801 79.0168 101.879 78.0978 100.957C77.1788 99.9433 76.3516 98.8369 75.4326 97.7305C75.065 97.2695 74.7893 96.8085 74.5136 96.2554C74.2379 95.7022 74.054 95.2412 73.7783 94.688C73.5026 94.0426 73.3188 93.305 73.2269 92.6596C73.0431 91.922 72.8593 91.1844 72.7674 90.4468C72.7674 90.1702 72.7674 89.8936 72.6755 89.6171C72.6755 89.3405 72.5836 89.1561 72.3998 88.9717C72.216 88.7873 72.0322 88.6951 71.7565 88.6951C71.3888 88.7873 70.9293 89.1561 70.9293 89.6171Z" fill="#1C1C1C"/>
<path d="M96.4785 85.4681C96.2947 85.4681 96.1109 85.6525 96.019 85.7447C95.8352 86.0213 95.9271 86.4823 96.2028 86.6667C97.0299 87.1277 97.9489 87.4965 98.868 87.7731C99.787 88.0497 100.706 88.3263 101.625 88.4185C102.085 88.5107 102.636 88.6029 103.096 88.6029C103.555 88.6951 103.923 88.6951 104.382 88.6951C105.209 88.6951 106.036 88.6951 106.864 88.6951C106.22 90.0781 105.577 91.4611 105.026 92.9362C104.658 93.766 104.29 94.688 103.923 95.5178C103.555 96.3476 103.187 97.1774 102.82 98.0072C102.544 98.6525 102.268 99.2979 101.993 99.8511C101.809 100.312 101.625 100.773 101.533 101.234C100.982 101.142 100.43 101.05 99.9708 101.05C99.3275 100.958 98.6842 100.865 98.0409 100.773C97.0299 100.589 96.019 100.404 95.0999 99.9433C94.6404 99.7589 94.2728 99.4823 93.9052 99.2979C93.3538 99.0213 92.8942 98.6525 92.3428 98.3759C91.8833 98.0993 91.3319 97.8228 90.8724 97.5462C90.3209 97.2696 89.7695 96.993 89.31 96.7164C89.0343 96.6242 88.8505 96.532 88.5748 96.6242C88.2991 96.7164 88.1153 96.8086 87.9314 97.0852C87.7476 97.2696 87.7476 97.6384 87.8395 97.8227C87.9314 98.0993 88.0233 98.2837 88.2991 98.4681C89.1262 98.9291 89.9533 99.2979 90.8724 99.7589C91.6995 100.22 92.5266 100.681 93.3538 101.234C94.1809 101.695 95.008 102.156 95.9271 102.34C96.8461 102.617 97.7651 102.801 98.7761 102.986C99.2356 103.078 99.6032 103.078 100.063 103.17C100.43 103.17 100.89 103.262 101.257 103.262C101.441 103.262 101.625 103.262 101.809 103.262C101.993 103.262 102.085 103.262 102.268 103.262C102.544 103.262 102.728 103.078 102.912 102.986C103.096 102.801 103.187 102.525 103.279 102.34C103.279 102.248 103.371 102.156 103.371 102.064C103.463 101.879 103.463 101.603 103.555 101.418C103.831 100.589 104.106 99.7589 104.474 99.0213C104.842 98.1915 105.209 97.3618 105.577 96.532C106.22 95.0568 106.772 93.4894 107.415 91.922C107.691 91.1845 108.058 90.4469 108.334 89.7093C108.518 89.3405 108.702 88.8795 108.794 88.4185C108.885 88.1419 108.885 87.9575 108.702 87.6809C108.518 87.4043 108.334 87.3121 107.966 87.2199C107.783 87.2199 107.507 87.2199 107.231 87.3121C106.312 87.4043 105.485 87.3121 104.566 87.3121C103.647 87.3121 102.728 87.1277 101.809 87.0355C100.247 86.7589 98.6842 86.2979 97.2137 85.6525C97.2137 85.6525 97.1218 85.6525 97.1218 85.5603C97.0299 85.4681 96.8461 85.4681 96.7542 85.4681C96.5704 85.4681 96.4785 85.4681 96.4785 85.4681Z" fill="#1C1C1C"/>
<path d="M124.785 92.9362C124.693 92.5674 124.601 92.1064 124.417 91.7376C124.233 91.2766 124.05 90.9078 123.866 90.539C123.498 89.7092 123.131 88.8794 122.487 88.234C122.028 87.5886 121.384 87.0354 120.925 86.3901C120.741 86.0213 120.465 85.7447 120.282 85.3759C120.19 85.1915 120.098 85.0993 119.914 85.0071C119.73 84.8227 119.454 84.6383 119.179 84.5461C118.903 84.4539 118.627 84.3617 118.352 84.3617C118.168 84.3617 118.076 84.3617 117.984 84.4539C117.8 84.5461 117.616 84.7305 117.616 84.9149C117.524 84.9149 117.524 84.9149 117.433 85.0071C117.249 85.0993 117.157 85.2837 116.973 85.4681C116.881 85.5603 116.789 85.6525 116.789 85.7447C116.605 85.9291 116.513 86.1135 116.33 86.2979C115.686 87.0355 115.043 87.5886 114.4 88.234C113.756 88.8794 113.021 89.5248 112.286 90.078C112.102 90.2624 111.826 90.3546 111.643 90.4468C111.459 90.539 111.275 90.6312 111.091 90.7234C110.815 90.8156 110.448 90.9078 110.08 91C109.805 91.0922 109.529 91.0922 109.253 91.0922C108.702 91.0922 108.15 91.0922 107.599 91.1844C107.231 91.1844 106.772 91.2766 106.404 91.2766C106.404 91.3688 106.404 91.461 106.312 91.5532C106.128 91.922 105.945 92.383 105.853 92.844C106.22 92.844 106.588 92.7518 106.956 92.7518C107.323 92.7518 107.783 92.7518 108.15 92.6596C108.977 92.6596 109.805 92.5674 110.632 92.2908C111.091 92.1986 111.551 92.0142 111.918 91.8298C112.286 91.6454 112.654 91.461 112.929 91.1844C113.664 90.6312 114.308 90.078 114.951 89.5248C115.503 89.0638 116.054 88.5106 116.513 88.0496L116.605 87.9574C116.513 88.695 116.513 89.5248 116.513 90.3546C116.513 91.1844 116.513 92.0142 116.605 92.844C116.605 93.6737 116.697 94.5035 116.881 95.3333C116.973 95.7943 117.157 96.1631 117.341 96.5319C117.433 96.7163 117.524 96.9007 117.616 96.9929C117.708 97.1773 117.892 97.4539 118.076 97.5461C118.352 97.8227 118.719 98.1915 119.087 98.3759C119.454 98.6525 119.914 98.8369 120.373 98.9291C120.741 99.0213 121.109 99.1135 121.476 99.1135C121.936 99.1135 122.395 98.9291 122.855 98.7447C123.314 98.5603 123.682 98.2837 123.958 97.9149C124.601 97.1773 124.877 96.2553 125.061 95.3333C125.152 94.8723 125.152 94.5035 125.152 94.0425C124.969 93.7659 124.877 93.305 124.785 92.9362ZM123.498 95.4255C123.406 95.7943 123.314 96.0709 123.222 96.4397C123.131 96.6241 122.947 96.9007 122.855 97.0851C122.763 97.2695 122.579 97.3617 122.395 97.4539C122.212 97.5461 122.028 97.6383 121.844 97.7305C121.66 97.8227 121.568 97.8227 121.384 97.8227C121.292 97.8227 121.201 97.8227 121.017 97.8227C120.649 97.7305 120.373 97.6383 120.098 97.4539C119.822 97.2695 119.546 97.1773 119.363 96.9929C119.179 96.8085 119.087 96.7163 118.903 96.5319C118.811 96.4397 118.719 96.3475 118.719 96.1631C118.627 96.0709 118.535 95.8865 118.535 95.7021C118.352 95.1489 118.26 94.5957 118.168 94.0425C118.076 93.305 118.076 92.6596 118.076 91.922C118.076 91.1844 118.076 90.4468 118.168 89.7092C118.26 88.9716 118.26 88.234 118.352 87.4964C118.352 87.1277 118.443 86.7589 118.535 86.3901C118.535 86.2979 118.535 86.2057 118.627 86.1135C118.811 86.2979 118.995 86.5745 119.179 86.8511C119.363 87.1276 119.546 87.312 119.73 87.5886C119.914 87.8652 120.19 88.0496 120.373 88.3262C120.557 88.5106 120.833 88.7872 121.017 88.9716C121.201 89.156 121.384 89.4326 121.66 89.7092C122.028 90.1702 122.303 90.7234 122.579 91.1844C122.855 91.7376 123.131 92.2908 123.314 92.844C123.498 93.3972 123.59 93.8581 123.682 94.4113C123.682 94.5957 123.682 94.6879 123.682 94.8723C123.498 94.9645 123.498 95.1489 123.498 95.4255Z" fill="#1C1C1C"/>
<path d="M112.47 111.284C112.47 111.099 112.378 110.823 112.378 110.638C112.286 110.177 112.102 109.716 111.918 109.347C111.643 108.518 111.183 107.78 110.724 107.043C110.448 106.582 110.08 106.028 109.713 105.567C109.345 105.106 108.886 104.645 108.334 104.277C108.242 104.184 108.058 104.092 107.875 104.092C107.691 104.092 107.415 104.184 107.231 104.369C106.864 104.645 106.864 105.291 107.231 105.66C107.599 106.028 108.058 106.397 108.334 106.858C108.61 107.227 108.977 107.596 109.253 107.964C109.805 108.702 110.264 109.532 110.632 110.362C110.816 110.823 110.907 111.376 110.999 111.837C110.999 112.298 110.999 112.667 110.999 113.128C110.907 113.496 110.816 113.865 110.632 114.142C110.54 114.326 110.356 114.603 110.264 114.787C110.172 114.879 110.08 114.972 109.896 115.156C109.805 115.248 109.713 115.248 109.621 115.34C109.437 115.433 109.253 115.433 109.069 115.433C108.886 115.433 108.794 115.433 108.61 115.433C108.518 115.433 108.426 115.34 108.334 115.34C108.242 115.248 108.058 115.156 107.966 115.064C107.783 114.879 107.599 114.695 107.415 114.511C107.139 114.05 106.864 113.496 106.68 113.035C106.588 112.759 106.496 112.482 106.404 112.113C106.312 111.745 106.312 111.468 106.312 111.099C106.22 110.454 106.128 109.716 106.22 109.071C106.22 108.333 106.312 107.596 106.404 106.95C106.496 106.674 106.496 106.397 106.588 106.028C106.588 105.844 106.588 105.66 106.496 105.475C106.404 105.291 106.22 105.106 106.037 105.106C105.945 105.106 105.853 105.106 105.853 105.106C105.761 105.106 105.669 105.106 105.577 105.106C105.485 105.106 105.393 105.199 105.301 105.199C104.934 105.291 104.658 105.383 104.29 105.567C103.831 105.752 103.371 105.844 103.004 105.936C102.177 106.121 101.258 106.213 100.338 106.305C99.879 106.305 99.4195 106.397 98.9599 106.397C98.5004 106.397 98.0409 106.305 97.5814 106.213C97.03 106.121 96.4785 105.936 95.9271 105.844C95.3757 105.752 94.8243 105.567 94.2728 105.383C93.8133 105.291 93.4457 105.199 92.9862 105.106V105.199C92.8024 105.66 92.4348 106.028 92.1591 106.397C92.251 106.397 92.3429 106.397 92.4348 106.397C93.17 106.582 93.9052 106.766 94.5486 106.95C94.9162 107.043 95.2838 107.135 95.6514 107.227C96.019 107.319 96.4785 107.411 96.8461 107.504C97.3057 107.596 97.8571 107.688 98.3166 107.78C98.6842 107.872 99.1437 107.872 99.5114 107.872C99.9709 107.872 100.43 107.78 100.89 107.78C101.258 107.78 101.717 107.688 102.085 107.688C102.452 107.596 102.728 107.596 103.096 107.504C103.463 107.411 103.831 107.319 104.107 107.227C104.382 107.135 104.658 107.043 104.842 106.95C104.842 107.043 104.842 107.135 104.842 107.227C104.75 107.596 104.75 108.057 104.658 108.425C104.566 109.255 104.658 110.085 104.658 110.915C104.75 111.745 104.75 112.667 105.117 113.496C105.301 113.957 105.393 114.326 105.669 114.695C105.853 115.156 106.128 115.525 106.496 115.894C106.68 116.078 106.864 116.262 107.047 116.447C107.231 116.631 107.507 116.723 107.691 116.816C107.966 116.908 108.242 117 108.61 117C108.886 117 109.161 117 109.437 117C109.529 117 109.621 117 109.713 116.908C109.896 116.816 110.08 116.816 110.264 116.723C110.54 116.631 110.724 116.447 110.907 116.355C111.183 116.078 111.459 115.801 111.643 115.433C111.826 115.248 111.918 114.972 112.01 114.787C112.286 114.234 112.47 113.589 112.47 112.943C112.654 112.39 112.562 111.837 112.47 111.284Z" fill="#1C1C1C"/>
<path d="M66.9775 19.9148C58.6143 29.7801 55.3057 41.4893 60.3604 53.6595C64.1285 62.695 72.216 68.5035 81.6821 70.3475C91.8834 72.3758 101.349 70.8085 109.069 63.3404C117.065 55.5957 119.914 39.9219 113.021 30.6099C112.378 29.7801 110.999 30.6099 111.643 31.4397C119.179 41.5815 114.308 57.2553 105.209 64.4468C98.3167 69.9787 89.5858 70.4397 81.2226 68.5957C73.5946 66.9361 66.7937 62.5106 63.0256 55.5957C56.5005 43.7021 59.5333 30.9787 68.0803 20.929C68.8156 20.2836 67.6208 19.0851 66.9775 19.9148Z" fill="#1C1C1C"/>
<path d="M99.1438 37.0638C100.155 36.5106 101.441 36.695 102.36 37.5248C103.096 38.2624 104.198 37.156 103.463 36.4184C102.085 35.0354 100.063 34.7589 98.4086 35.6808C97.4895 36.234 98.3167 37.617 99.1438 37.0638Z" fill="#1C1C1C"/>
<path d="M70.1941 33.6525C70.8374 33.4681 71.4808 33.2837 72.1241 33.2837C72.8593 33.3759 73.4107 33.8369 73.8703 34.2978C74.6055 34.9432 75.8002 33.8369 74.9731 33.1915C74.2379 32.5461 73.5026 31.9929 72.5836 31.8085C71.6646 31.6241 70.6536 31.9007 69.7346 32.1773C68.8156 32.4539 69.1832 33.9291 70.1941 33.6525Z" fill="#1C1C1C"/>
<path d="M109.713 44.5319C109.713 46.1915 108.334 47.4823 106.772 47.4823C105.209 47.4823 103.831 46.0993 103.831 44.5319C103.831 42.8723 105.209 41.5815 106.772 41.5815C108.334 41.5815 109.713 42.8723 109.713 44.5319Z" fill="#F7B7C9"/>
<path d="M73.7783 39.3688C73.7783 41.0284 72.3998 42.3192 70.8374 42.3192C69.1831 42.3192 67.8965 40.9362 67.8965 39.3688C67.8965 37.7092 69.275 36.4185 70.8374 36.4185C72.4917 36.4185 73.7783 37.7092 73.7783 39.3688Z" fill="#F7B7C9"/>
<path d="M82.2335 14.6596C83.1526 22.312 89.8615 26.922 96.2029 29.7801C97.1219 30.2411 97.949 28.8581 97.03 28.3972C91.2401 25.8156 84.7149 21.6667 83.7959 14.6596C83.704 13.6454 82.1416 13.6454 82.2335 14.6596Z" fill="#1C1C1C"/>
<path d="M89.9533 11.9858C94.6404 17.2412 102.36 18.6241 108.977 17.61C109.988 17.4256 109.529 15.9504 108.518 16.0426C102.36 17.0568 95.2837 15.6738 90.9643 10.8795C90.4128 10.0497 89.31 11.156 89.9533 11.9858Z" fill="#1C1C1C"/>
<path d="M77.7302 16.9645C71.205 20.5603 63.6689 20.4681 57.1437 16.7801C56.2247 16.3191 55.4895 17.6099 56.3166 18.1631C63.3013 22.1277 71.3888 22.2199 78.4654 18.3475C79.3844 17.8865 78.5573 16.5035 77.7302 16.9645Z" fill="#1C1C1C"/>
<path d="M62.6579 9.49649C65.7827 14.5674 73.4107 15.305 78.0059 12.1703C78.833 11.6171 78.0978 10.2341 77.1787 10.7873C73.3188 13.3688 66.6098 13 63.9446 8.66671C63.4851 7.83692 62.1065 8.66671 62.6579 9.49649Z" fill="#1C1C1C"/>
<path d="M89.2181 14.2908C95.9271 22.6809 107.507 23.9716 117.616 23.7872C118.627 23.7872 118.627 22.2199 117.616 22.2199C107.966 22.4043 96.8461 21.2979 90.4129 13.1844C89.7695 12.4468 88.5748 13.5532 89.2181 14.2908Z" fill="#1C1C1C"/>
<path d="M116.973 42.1348C118.627 40.844 122.579 41.4894 121.844 44.2554C121.66 45.0851 121.109 46.0071 120.282 46.1915C119.271 46.3759 117.8 46.0993 116.789 45.6383C115.87 45.1773 115.043 46.5603 115.962 47.0213C117.341 47.7589 119.914 48.3121 121.384 47.4823C122.579 46.8369 123.406 45.1773 123.498 43.8866C123.59 42.227 122.303 40.844 120.925 40.1986C119.179 39.3688 117.341 39.8298 115.87 41.0284C115.135 41.6738 116.238 42.7802 116.973 42.1348Z" fill="#1C1C1C"/>
<path d="M61.5551 30.4255C60.0846 29.0425 58.2465 27.5674 56.1328 27.7518C54.3866 27.844 52.8242 29.0425 52.3647 30.7021C51.9052 32.5461 52.7323 34.1135 54.2947 35.0355C55.1218 35.5886 56.1328 36.0496 57.0518 36.3262C58.1546 36.6028 58.7061 36.1418 59.717 35.9574C60.7279 35.773 60.2684 34.2979 59.2575 34.3901C58.6142 34.4823 58.1546 34.8511 57.4194 34.7589C56.868 34.6667 56.3166 34.2979 55.857 34.1135C54.6623 33.4681 53.4675 32.6383 53.8352 31.0709C54.2028 29.5957 55.857 29.0425 57.2356 29.4113C58.5223 29.6879 59.5332 30.7021 60.4522 31.5319C61.1875 32.2695 62.2903 31.1631 61.5551 30.4255Z" fill="#1C1C1C"/>
<path d="M46.7586 59.468C48.4129 59.1914 50.1591 59.7446 51.5376 60.6666C52.3647 61.2198 53.1919 59.8368 52.3647 59.2836C50.7105 58.0851 48.4129 57.6241 46.391 57.9007C45.2882 58.0851 45.7477 59.6524 46.7586 59.468Z" fill="#1C1C1C"/>
<path d="M47.1262 56.2411C49.0562 55.5036 51.5376 57.0709 52.9162 58.3617C53.6514 59.0993 54.7543 57.9007 54.019 57.2553C52.2729 55.5957 49.1481 53.7518 46.6667 54.766C45.7477 55.0426 46.2072 56.6099 47.1262 56.2411Z" fill="#1C1C1C"/>
<path d="M70.1941 41.9503C70.5617 61.5886 99.4195 65.4609 105.945 47.2056C106.312 46.2836 104.75 45.8226 104.382 46.7446C98.5004 63.156 72.1241 59.7446 71.7565 41.8581C71.7565 40.9361 70.1941 40.9361 70.1941 41.9503Z" fill="#1C1C1C"/>
</g>
<defs>
<filter id="filter0_d" x="38.9956" y="0" width="92" height="125" filterUnits="userSpaceOnUse" color-interpolation-filters="sRGB">
<feFlood flood-opacity="0" result="BackgroundImageFix"/>
<feColorMatrix in="SourceAlpha" type="matrix" values="0 0 0 0 0 0 0 0 0 0 0 0 0 0 0 0 0 0 127 0"/>
<feOffset dy="4"/>
<feGaussianBlur stdDeviation="2"/>
<feColorMatrix type="matrix" values="0 0 0 0 0 0 0 0 0 0 0 0 0 0 0 0 0 0 0.1 0"/>
<feBlend mode="normal" in2="BackgroundImageFix" result="effect1_dropShadow"/>
<feBlend mode="normal" in="SourceGraphic" in2="effect1_dropShadow" result="shape"/>
</filter>
<clipPath id="clip0">
<rect width="84" height="117" fill="white" transform="translate(42.9956)"/>
</clipPath>
</defs>
</svg>
